<svg viewBox="0 0 104.46 27.43" xmlns="http://www.w3.org/2000/svg"><path d="m15.38 21.55-1 5.66h-1.85l4.56-27.08h1.24l5.83 27.08h-2.75l-1.07-5.66zm4.62-1.62-2.33-11.88v.22l-2 11.65z" fill="#221f20"/><path d="m11 26.58v-7.64c0-4.36-1.76-5.62-4.64-5.62-.52 0-1 0-1 0v.87a4.14 4.14 0 0 1 .56 0c1.93 0 2.49.49 2.49 3.91v8.38s-.13 0-.22 0c-2.58 0-5.37-2.79-5.37-12.88.02-9.67 2.85-12.6 4.53-12.6a1.3 1.3 0 0 1 .39 0l.56 2.58h1.07v-3.24a9.06 9.06 0 0 0 -2-.24c-2.69-.01-7.37 1.01-7.37 13.54s4.81 13.75 8 13.75a6.45 6.45 0 0 0 3-.8" fill="#221f20"/><path d="m0 0h104.46v27.43h-104.46z" fill="none"/><g fill="#221f20"><path d="m33.12.27h-10.96l.01 1.73h4.11l-.01 25.21h2.67v-25.21h4.17z"/><path d="m53.79 8.16c0 5.58-3.27 8.06-4.13 8.3v-15c1.85 0 4.13 1.22 4.13 6.66m2.84 0c0-6.87-4.63-7.85-7.63-7.85h-2v.87 26.07h2.67v-9.49a9.74 9.74 0 0 0 7-9.56"/><path d="m76.19 8.16c0 5.58-3.27 8-4.13 8.27v-14.94c1.85 0 4.13 1.22 4.13 6.66m2.44 19v-.85a12.67 12.67 0 0 0 -1.46-5.44 19 19 0 0 0 -2.84-4.12 9.84 9.84 0 0 0 4.67-8.58c0-6.5-4.1-7.89-7.58-7.89l-2 .1v26.84h2.67v-9.56a17.07 17.07 0 0 1 2.91 4.22 13.73 13.73 0 0 1 1.2 5.34z"/><path d="m88.38 13.74c0-10.82-3.31-12.25-4.64-12.25v24.51c1.33 0 4.64-1.43 4.64-12.25m2.84 0c0 12.25-5.22 13.46-8.22 13.46h-1.9v-26.94h1.9c3 0 8.21 1.26 8.21 13.47"/><path d="m41.81 13.72a48.23 48.23 0 0 1 -.69 9.75 48.39 48.39 0 0 0 .69-9.73c0-6-.42-9.28-1-11v-.07c.64 1.7 1.07 4.95 1.07 11m-1.07-11a5.37 5.37 0 0 0 -.23-.52 1.92 1.92 0 0 1 .23.52m-4.32 1.33a48.21 48.21 0 0 0 -.69 9.75c0 6 .42 9.28 1 11v.07c-.64-1.7-1.07-4.95-1.07-11a48.1 48.1 0 0 1 .76-9.82m.37 20.81a5.4 5.4 0 0 0 .23.52 1.9 1.9 0 0 1 -.23-.52m7.79-11.07c0 12.32-3.44 13.72-5.84 13.72s-5.81-1.46-5.81-13.74 3.4-13.72 5.8-13.72 5.84 1.4 5.84 13.72m-2.84 0c0-6.1-.43-9.35-1.07-11a1.92 1.92 0 0 0 -.23-.52 2 2 0 0 0 -3.42 0 5.43 5.43 0 0 0 -.25.58c-.09.23-.17.49-.24.78v.07.06l-.1.31a48.1 48.1 0 0 0 -.69 9.76c0 6.1.43 9.35 1.07 11a1.9 1.9 0 0 0 .23.52 2 2 0 0 0 3.42 0 5.24 5.24 0 0 0 .25-.58c.07-.18.13-.38.2-.6s.11-.42.17-.66a48.17 48.17 0 0 0 .7-9.77"/><path d="m101.62 13.72a48.15 48.15 0 0 1 -.69 9.75 48.33 48.33 0 0 0 .69-9.73c0-6-.42-9.28-1-11v-.07c.64 1.7 1.07 4.95 1.07 11m-1.07-11a5.22 5.22 0 0 0 -.23-.52 1.89 1.89 0 0 1 .23.52m-4.32 1.33a48.26 48.26 0 0 0 -.69 9.75c0 6 .42 9.28 1 11v.07c-.64-1.7-1.07-4.95-1.07-11a48.07 48.07 0 0 1 .76-9.82m.37 20.81a5.2 5.2 0 0 0 .23.52 1.89 1.89 0 0 1 -.23-.52m7.79-11.07c0 12.32-3.44 13.72-5.84 13.72s-5.85-1.46-5.85-13.74 3.44-13.72 5.84-13.72 5.84 1.4 5.84 13.72m-2.84 0c0-6.1-.43-9.35-1.07-11a1.89 1.89 0 0 0 -.23-.52 2 2 0 0 0 -3.42 0 5.54 5.54 0 0 0 -.25.58c-.08.23-.17.49-.24.78v.07.06q0 .17-.09.36a48.07 48.07 0 0 0 -.69 9.76c0 6.1.43 9.35 1.07 11a1.89 1.89 0 0 0 .23.52 2 2 0 0 0 3.42 0 5.43 5.43 0 0 0 .25-.58c.07-.18.13-.38.2-.6s.11-.42.17-.66a48.13 48.13 0 0 0 .7-9.77"/></g><path d="m0 0h104.46v27.43h-104.46z" fill="none"/><path d="m59.24 21.55-1 5.66h-1.85l4.61-27.08h1.24l5.76 27.09h-2.73l-1.07-5.67zm4.64-1.63-2.35-11.87v.22l-2 11.65z" fill="#221f20"/></svg>